<mxfile host="app.diagrams.net" modified="2024-05-22T11:11:48.964Z" agent="Mozilla/5.0 (Windows NT 10.0; Win64; x64; rv:126.0) Gecko/20100101 Firefox/126.0" etag="ExVRv-VN69Eni7QibxgT" version="24.4.4" type="device">
  <diagram name="Page-1" id="58cdce13-f638-feb5-8d6f-7d28b1aa9fa0">
    <mxGraphModel dx="1434" dy="754" grid="1" gridSize="10" guides="1" tooltips="1" connect="1" arrows="1" fold="1" page="1" pageScale="1" pageWidth="1100" pageHeight="850" background="none" math="0" shadow="0">
      <root>
        <mxCell id="0" />
        <mxCell id="1" parent="0" />
        <mxCell id="spy-1TlKtiLTEOFrjTHa-1" value="Kino System" style="shape=umlFrame;whiteSpace=wrap;html=1;pointerEvents=0;" parent="1" vertex="1">
          <mxGeometry x="220" y="180" width="680" height="440" as="geometry" />
        </mxCell>
        <mxCell id="spy-1TlKtiLTEOFrjTHa-8" value="" style="group" parent="1" vertex="1" connectable="0">
          <mxGeometry x="590" y="210" width="290" height="110" as="geometry" />
        </mxCell>
        <mxCell id="spy-1TlKtiLTEOFrjTHa-2" value="«Komponente»&lt;br&gt;&lt;b&gt;Verwaltungssystem&lt;/b&gt;" style="html=1;dropTarget=0;whiteSpace=wrap;" parent="spy-1TlKtiLTEOFrjTHa-8" vertex="1">
          <mxGeometry width="215" height="110" as="geometry" />
        </mxCell>
        <mxCell id="spy-1TlKtiLTEOFrjTHa-3" value="" style="shape=module;jettyWidth=8;jettyHeight=4;" parent="spy-1TlKtiLTEOFrjTHa-2" vertex="1">
          <mxGeometry x="1" width="20" height="20" relative="1" as="geometry">
            <mxPoint x="-27" y="7" as="offset" />
          </mxGeometry>
        </mxCell>
        <mxCell id="spy-1TlKtiLTEOFrjTHa-4" value="" style="whiteSpace=wrap;html=1;aspect=fixed;" parent="spy-1TlKtiLTEOFrjTHa-8" vertex="1">
          <mxGeometry x="200" y="40" width="20" height="20" as="geometry" />
        </mxCell>
        <mxCell id="spy-1TlKtiLTEOFrjTHa-5" value="" style="whiteSpace=wrap;html=1;aspect=fixed;" parent="spy-1TlKtiLTEOFrjTHa-8" vertex="1">
          <mxGeometry x="200" y="75" width="20" height="20" as="geometry" />
        </mxCell>
        <mxCell id="spy-1TlKtiLTEOFrjTHa-6" value="&lt;div&gt;Authorized&lt;/div&gt;&lt;div&gt;CoWorker&lt;/div&gt;" style="text;html=1;align=center;verticalAlign=middle;whiteSpace=wrap;rounded=0;" parent="spy-1TlKtiLTEOFrjTHa-8" vertex="1">
          <mxGeometry x="230" y="35" width="60" height="30" as="geometry" />
        </mxCell>
        <mxCell id="spy-1TlKtiLTEOFrjTHa-7" value="Boss" style="text;html=1;align=center;verticalAlign=middle;whiteSpace=wrap;rounded=0;" parent="spy-1TlKtiLTEOFrjTHa-8" vertex="1">
          <mxGeometry x="220" y="70" width="60" height="30" as="geometry" />
        </mxCell>
        <mxCell id="cDygoE3Ch2edbj10DY95-1" value="" style="group" parent="1" vertex="1" connectable="0">
          <mxGeometry x="590" y="350" width="290" height="110" as="geometry" />
        </mxCell>
        <mxCell id="cDygoE3Ch2edbj10DY95-2" value="«Komponente»&lt;br&gt;&lt;b&gt;Operativsystem&lt;/b&gt;" style="html=1;dropTarget=0;whiteSpace=wrap;" parent="cDygoE3Ch2edbj10DY95-1" vertex="1">
          <mxGeometry width="215" height="110" as="geometry" />
        </mxCell>
        <mxCell id="cDygoE3Ch2edbj10DY95-3" value="" style="shape=module;jettyWidth=8;jettyHeight=4;" parent="cDygoE3Ch2edbj10DY95-2" vertex="1">
          <mxGeometry x="1" width="20" height="20" relative="1" as="geometry">
            <mxPoint x="-27" y="7" as="offset" />
          </mxGeometry>
        </mxCell>
        <mxCell id="cDygoE3Ch2edbj10DY95-5" value="" style="whiteSpace=wrap;html=1;aspect=fixed;" parent="cDygoE3Ch2edbj10DY95-1" vertex="1">
          <mxGeometry x="200" y="45" width="20" height="20" as="geometry" />
        </mxCell>
        <mxCell id="cDygoE3Ch2edbj10DY95-7" value="Boss" style="text;html=1;align=center;verticalAlign=middle;whiteSpace=wrap;rounded=0;" parent="cDygoE3Ch2edbj10DY95-1" vertex="1">
          <mxGeometry x="215" y="40" width="60" height="30" as="geometry" />
        </mxCell>
        <mxCell id="cDygoE3Ch2edbj10DY95-67" value="" style="group" parent="1" vertex="1" connectable="0">
          <mxGeometry x="370" y="480" width="380" height="110" as="geometry" />
        </mxCell>
        <mxCell id="cDygoE3Ch2edbj10DY95-12" value="«Komponente»&lt;br&gt;&lt;b&gt;Loginsystem&lt;/b&gt;" style="html=1;dropTarget=0;whiteSpace=wrap;" parent="cDygoE3Ch2edbj10DY95-67" vertex="1">
          <mxGeometry x="90" width="215" height="110" as="geometry" />
        </mxCell>
        <mxCell id="cDygoE3Ch2edbj10DY95-13" value="" style="shape=module;jettyWidth=8;jettyHeight=4;" parent="cDygoE3Ch2edbj10DY95-12" vertex="1">
          <mxGeometry x="1" width="20" height="20" relative="1" as="geometry">
            <mxPoint x="-27" y="7" as="offset" />
          </mxGeometry>
        </mxCell>
        <mxCell id="cDygoE3Ch2edbj10DY95-14" value="" style="whiteSpace=wrap;html=1;aspect=fixed;" parent="cDygoE3Ch2edbj10DY95-67" vertex="1">
          <mxGeometry x="290" y="55" width="20" height="20" as="geometry" />
        </mxCell>
        <mxCell id="cDygoE3Ch2edbj10DY95-15" value="" style="whiteSpace=wrap;html=1;aspect=fixed;" parent="cDygoE3Ch2edbj10DY95-67" vertex="1">
          <mxGeometry x="290" y="80" width="20" height="20" as="geometry" />
        </mxCell>
        <mxCell id="cDygoE3Ch2edbj10DY95-16" value="&lt;div&gt;Authorized&lt;/div&gt;&lt;div&gt;CoWorker&lt;/div&gt;" style="text;html=1;align=center;verticalAlign=middle;whiteSpace=wrap;rounded=0;" parent="cDygoE3Ch2edbj10DY95-67" vertex="1">
          <mxGeometry x="320" y="80" width="60" height="30" as="geometry" />
        </mxCell>
        <mxCell id="cDygoE3Ch2edbj10DY95-17" value="Boss" style="text;html=1;align=center;verticalAlign=middle;whiteSpace=wrap;rounded=0;" parent="cDygoE3Ch2edbj10DY95-67" vertex="1">
          <mxGeometry x="310" y="50" width="60" height="30" as="geometry" />
        </mxCell>
        <mxCell id="cDygoE3Ch2edbj10DY95-18" value="" style="whiteSpace=wrap;html=1;aspect=fixed;" parent="cDygoE3Ch2edbj10DY95-67" vertex="1">
          <mxGeometry x="290" y="30" width="20" height="20" as="geometry" />
        </mxCell>
        <mxCell id="cDygoE3Ch2edbj10DY95-19" value="CoWorker" style="text;html=1;align=center;verticalAlign=middle;whiteSpace=wrap;rounded=0;" parent="cDygoE3Ch2edbj10DY95-67" vertex="1">
          <mxGeometry x="320" y="25" width="60" height="30" as="geometry" />
        </mxCell>
        <mxCell id="cDygoE3Ch2edbj10DY95-51" value="" style="whiteSpace=wrap;html=1;aspect=fixed;" parent="cDygoE3Ch2edbj10DY95-67" vertex="1">
          <mxGeometry x="80" y="30" width="20" height="20" as="geometry" />
        </mxCell>
        <mxCell id="cDygoE3Ch2edbj10DY95-52" value="" style="whiteSpace=wrap;html=1;aspect=fixed;" parent="cDygoE3Ch2edbj10DY95-67" vertex="1">
          <mxGeometry x="80" y="55" width="20" height="20" as="geometry" />
        </mxCell>
        <mxCell id="cDygoE3Ch2edbj10DY95-53" value="" style="whiteSpace=wrap;html=1;aspect=fixed;" parent="cDygoE3Ch2edbj10DY95-67" vertex="1">
          <mxGeometry x="80" y="80" width="20" height="20" as="geometry" />
        </mxCell>
        <mxCell id="cDygoE3Ch2edbj10DY95-54" value="Customer" style="text;html=1;align=center;verticalAlign=middle;whiteSpace=wrap;rounded=0;" parent="cDygoE3Ch2edbj10DY95-67" vertex="1">
          <mxGeometry x="20" y="25" width="60" height="30" as="geometry" />
        </mxCell>
        <mxCell id="cDygoE3Ch2edbj10DY95-55" value="User" style="text;html=1;align=center;verticalAlign=middle;whiteSpace=wrap;rounded=0;" parent="cDygoE3Ch2edbj10DY95-67" vertex="1">
          <mxGeometry x="20" y="50" width="60" height="30" as="geometry" />
        </mxCell>
        <mxCell id="cDygoE3Ch2edbj10DY95-57" value="&lt;div&gt;unregistered&lt;/div&gt;User" style="text;html=1;align=center;verticalAlign=middle;whiteSpace=wrap;rounded=0;" parent="cDygoE3Ch2edbj10DY95-67" vertex="1">
          <mxGeometry y="80" width="60" height="30" as="geometry" />
        </mxCell>
        <mxCell id="cDygoE3Ch2edbj10DY95-109" value="" style="group" parent="1" vertex="1" connectable="0">
          <mxGeometry x="245" y="350" width="305" height="110" as="geometry" />
        </mxCell>
        <mxCell id="cDygoE3Ch2edbj10DY95-90" value="«Komponente»&lt;br&gt;&lt;b&gt;Kundenportal&lt;/b&gt;" style="html=1;dropTarget=0;whiteSpace=wrap;" parent="cDygoE3Ch2edbj10DY95-109" vertex="1">
          <mxGeometry x="90" width="215" height="110" as="geometry" />
        </mxCell>
        <mxCell id="cDygoE3Ch2edbj10DY95-91" value="" style="shape=module;jettyWidth=8;jettyHeight=4;" parent="cDygoE3Ch2edbj10DY95-90" vertex="1">
          <mxGeometry x="1" width="20" height="20" relative="1" as="geometry">
            <mxPoint x="-27" y="7" as="offset" />
          </mxGeometry>
        </mxCell>
        <mxCell id="cDygoE3Ch2edbj10DY95-102" value="" style="whiteSpace=wrap;html=1;aspect=fixed;" parent="cDygoE3Ch2edbj10DY95-109" vertex="1">
          <mxGeometry x="80" y="17.5" width="20" height="20" as="geometry" />
        </mxCell>
        <mxCell id="cDygoE3Ch2edbj10DY95-103" value="" style="whiteSpace=wrap;html=1;aspect=fixed;" parent="cDygoE3Ch2edbj10DY95-109" vertex="1">
          <mxGeometry x="80" y="42.5" width="20" height="20" as="geometry" />
        </mxCell>
        <mxCell id="cDygoE3Ch2edbj10DY95-104" value="" style="whiteSpace=wrap;html=1;aspect=fixed;" parent="cDygoE3Ch2edbj10DY95-109" vertex="1">
          <mxGeometry x="80" y="67.5" width="20" height="20" as="geometry" />
        </mxCell>
        <mxCell id="cDygoE3Ch2edbj10DY95-105" value="Customer" style="text;html=1;align=center;verticalAlign=middle;whiteSpace=wrap;rounded=0;" parent="cDygoE3Ch2edbj10DY95-109" vertex="1">
          <mxGeometry x="20" y="12.5" width="60" height="30" as="geometry" />
        </mxCell>
        <mxCell id="cDygoE3Ch2edbj10DY95-106" value="User" style="text;html=1;align=center;verticalAlign=middle;whiteSpace=wrap;rounded=0;" parent="cDygoE3Ch2edbj10DY95-109" vertex="1">
          <mxGeometry x="20" y="37.5" width="60" height="30" as="geometry" />
        </mxCell>
        <mxCell id="cDygoE3Ch2edbj10DY95-107" value="&lt;div&gt;unregistered&lt;/div&gt;&lt;div&gt;User&lt;br&gt;&lt;/div&gt;" style="text;html=1;align=center;verticalAlign=middle;whiteSpace=wrap;rounded=0;" parent="cDygoE3Ch2edbj10DY95-109" vertex="1">
          <mxGeometry y="67.5" width="60" height="30" as="geometry" />
        </mxCell>
        <mxCell id="cDygoE3Ch2edbj10DY95-125" value="" style="group" parent="1" vertex="1" connectable="0">
          <mxGeometry x="280" y="210" width="290" height="110" as="geometry" />
        </mxCell>
        <mxCell id="cDygoE3Ch2edbj10DY95-111" value="«Komponente»&lt;br&gt;&lt;b&gt;Kassensubsystem&lt;/b&gt;" style="html=1;dropTarget=0;whiteSpace=wrap;" parent="cDygoE3Ch2edbj10DY95-125" vertex="1">
          <mxGeometry width="215" height="110" as="geometry" />
        </mxCell>
        <mxCell id="cDygoE3Ch2edbj10DY95-112" value="" style="shape=module;jettyWidth=8;jettyHeight=4;" parent="cDygoE3Ch2edbj10DY95-111" vertex="1">
          <mxGeometry x="1" width="20" height="20" relative="1" as="geometry">
            <mxPoint x="-27" y="7" as="offset" />
          </mxGeometry>
        </mxCell>
        <mxCell id="cDygoE3Ch2edbj10DY95-119" value="" style="whiteSpace=wrap;html=1;aspect=fixed;" parent="cDygoE3Ch2edbj10DY95-125" vertex="1">
          <mxGeometry x="200" y="55" width="20" height="20" as="geometry" />
        </mxCell>
        <mxCell id="cDygoE3Ch2edbj10DY95-120" value="" style="whiteSpace=wrap;html=1;aspect=fixed;" parent="cDygoE3Ch2edbj10DY95-125" vertex="1">
          <mxGeometry x="200" y="80" width="20" height="20" as="geometry" />
        </mxCell>
        <mxCell id="cDygoE3Ch2edbj10DY95-121" value="&lt;div&gt;Authorized&lt;/div&gt;&lt;div&gt;CoWorker&lt;/div&gt;" style="text;html=1;align=center;verticalAlign=middle;whiteSpace=wrap;rounded=0;" parent="cDygoE3Ch2edbj10DY95-125" vertex="1">
          <mxGeometry x="230" y="80" width="60" height="30" as="geometry" />
        </mxCell>
        <mxCell id="cDygoE3Ch2edbj10DY95-122" value="Boss" style="text;html=1;align=center;verticalAlign=middle;whiteSpace=wrap;rounded=0;" parent="cDygoE3Ch2edbj10DY95-125" vertex="1">
          <mxGeometry x="220" y="50" width="60" height="30" as="geometry" />
        </mxCell>
        <mxCell id="cDygoE3Ch2edbj10DY95-123" value="" style="whiteSpace=wrap;html=1;aspect=fixed;" parent="cDygoE3Ch2edbj10DY95-125" vertex="1">
          <mxGeometry x="200" y="30" width="20" height="20" as="geometry" />
        </mxCell>
        <mxCell id="cDygoE3Ch2edbj10DY95-124" value="CoWorker" style="text;html=1;align=center;verticalAlign=middle;whiteSpace=wrap;rounded=0;" parent="cDygoE3Ch2edbj10DY95-125" vertex="1">
          <mxGeometry x="230" y="25" width="60" height="30" as="geometry" />
        </mxCell>
      </root>
    </mxGraphModel>
  </diagram>
</mxfile>
